<?xml version="1.0" standalone="no"?><!DOCTYPE svg PUBLIC "-//W3C//DTD SVG 1.1//EN" "http://www.w3.org/Graphics/SVG/1.1/DTD/svg11.dtd"><svg t="1514267776935" class="icon" style="" viewBox="0 0 1029 1024" version="1.1" xmlns="http://www.w3.org/2000/svg" p-id="2124" xmlns:xlink="http://www.w3.org/1999/xlink" width="128.625" height="128"><defs><style type="text/css"></style></defs><path d="M159.744 69.632 53.248 69.632C28.672 69.632 4.096 90.112 4.096 118.784l0 94.208c0 28.672 24.576 49.152 53.248 49.152l102.4 0C184.32 266.24 208.896 241.664 208.896 212.992L208.896 118.784C208.896 90.112 184.32 69.632 159.744 69.632zM970.752 69.632 368.64 69.632c-28.672 0-57.344 24.576-57.344 49.152l0 94.208c0 28.672 32.768 49.152 57.344 49.152l598.016 0c28.672 0 57.344-24.576 57.344-49.152L1024 118.784C1028.096 94.208 999.424 69.632 970.752 69.632zM159.744 413.696 53.248 413.696c-28.672 0-53.248 24.576-53.248 49.152l0 94.208c0 28.672 24.576 49.152 53.248 49.152l102.4 0c28.672 0 53.248-24.576 53.248-49.152l0-94.208C208.896 438.272 184.32 413.696 159.744 413.696zM970.752 413.696 368.64 413.696c-28.672 0-57.344 24.576-57.344 49.152l0 94.208c0 28.672 32.768 49.152 57.344 49.152l598.016 0c28.672 0 57.344-24.576 57.344-49.152l0-94.208C1028.096 438.272 999.424 413.696 970.752 413.696zM159.744 757.76 53.248 757.76c-28.672 0-53.248 24.576-53.248 49.152l0 94.208c0 28.672 24.576 49.152 53.248 49.152l102.4 0c28.672 0 53.248-24.576 53.248-49.152l0-94.208C208.896 782.336 184.32 757.76 159.744 757.76zM970.752 761.856 368.64 761.856c-28.672 0-57.344 24.576-57.344 49.152l0 94.208c0 28.672 32.768 49.152 57.344 49.152l598.016 0c28.672 0 57.344-24.576 57.344-49.152l0-94.208C1028.096 782.336 999.424 761.856 970.752 761.856z" p-id="2125" fill="#8a8a8a"></path></svg>