<?xml version="1.0" standalone="no"?><!DOCTYPE svg PUBLIC "-//W3C//DTD SVG 1.1//EN" "http://www.w3.org/Graphics/SVG/1.1/DTD/svg11.dtd"><svg t="1514342433004" class="icon" style="" viewBox="0 0 1024 1024" version="1.1" xmlns="http://www.w3.org/2000/svg" p-id="2983" xmlns:xlink="http://www.w3.org/1999/xlink" width="128" height="128"><defs><style type="text/css"></style></defs><path d="M910.985 209.379l-335.014-193.273c-34.903-20.142-92.025-20.142-126.932 0l-335.001 193.273c-34.907 20.137-63.463 69.565-63.463 109.849v386.547c0 40.278 28.556 89.708 63.463 109.849l335.001 193.273c34.907 20.137 92.029 20.137 126.932 0l335.004-193.273c34.912-20.151 63.468-69.576 63.468-109.859v-386.536c0.001-40.283-28.555-89.712-63.457-109.849v0zM622.19 512.502c0 123.223-99.97 223.12-223.292 223.12-123.317 0-223.288-99.897-223.288-223.12v0-170.298c0-29.175 23.668-52.833 52.878-52.833 29.204 0 52.868 23.648 52.868 52.833v170.288c0 64.863 52.628 117.449 117.542 117.449 64.916 0 117.542-52.586 117.542-117.449v-170.288c0-29.175 23.678-52.833 52.873-52.833 29.199 0 52.867 23.648 52.867 52.833v170.298h0.010zM849.409 682.785c0 29.18-23.663 52.838-52.868 52.838-29.204 0-52.877-23.658-52.877-52.838v-340.581c0-29.175 23.673-52.833 52.877-52.833 29.206 0 52.868 23.648 52.868 52.833v340.581zM849.409 682.785z" fill="#59407E" p-id="2984"></path></svg>